<mxfile host="app.diagrams.net" modified="2023-10-27T13:36:03.349Z" agent="Mozilla/5.0 (Windows NT 10.0; Win64; x64) AppleWebKit/537.36 (KHTML, like Gecko) Chrome/118.0.0.0 Safari/537.36" etag="ykpYRUxv_0yqCWHBAvTc" version="22.0.8" type="device">
  <diagram id="C5RBs43oDa-KdzZeNtuy" name="Page-1">
    <mxGraphModel dx="2514" dy="892" grid="1" gridSize="10" guides="1" tooltips="1" connect="1" arrows="1" fold="1" page="1" pageScale="1" pageWidth="827" pageHeight="1169" math="0" shadow="0">
      <root>
        <mxCell id="WIyWlLk6GJQsqaUBKTNV-0" />
        <mxCell id="WIyWlLk6GJQsqaUBKTNV-1" parent="WIyWlLk6GJQsqaUBKTNV-0" />
        <mxCell id="hShiBF7f5LqrZP-0qnfP-7" style="edgeStyle=orthogonalEdgeStyle;rounded=0;orthogonalLoop=1;jettySize=auto;html=1;" parent="WIyWlLk6GJQsqaUBKTNV-1" source="hShiBF7f5LqrZP-0qnfP-0" edge="1">
          <mxGeometry relative="1" as="geometry">
            <mxPoint x="240" y="140" as="targetPoint" />
          </mxGeometry>
        </mxCell>
        <mxCell id="hShiBF7f5LqrZP-0qnfP-0" value="Начало" style="rounded=1;whiteSpace=wrap;html=1;" parent="WIyWlLk6GJQsqaUBKTNV-1" vertex="1">
          <mxGeometry x="180" y="50" width="120" height="60" as="geometry" />
        </mxCell>
        <mxCell id="hShiBF7f5LqrZP-0qnfP-22" style="edgeStyle=orthogonalEdgeStyle;rounded=0;orthogonalLoop=1;jettySize=auto;html=1;entryX=0.5;entryY=0;entryDx=0;entryDy=0;" parent="WIyWlLk6GJQsqaUBKTNV-1" source="hShiBF7f5LqrZP-0qnfP-3" target="hShiBF7f5LqrZP-0qnfP-21" edge="1">
          <mxGeometry relative="1" as="geometry" />
        </mxCell>
        <mxCell id="hShiBF7f5LqrZP-0qnfP-82" style="edgeStyle=orthogonalEdgeStyle;rounded=0;orthogonalLoop=1;jettySize=auto;html=1;" parent="WIyWlLk6GJQsqaUBKTNV-1" source="hShiBF7f5LqrZP-0qnfP-3" edge="1">
          <mxGeometry relative="1" as="geometry">
            <mxPoint x="120" y="585" as="targetPoint" />
          </mxGeometry>
        </mxCell>
        <mxCell id="hShiBF7f5LqrZP-0qnfP-3" value="arr[i][j] &amp;lt; 0" style="rhombus;whiteSpace=wrap;html=1;" parent="WIyWlLk6GJQsqaUBKTNV-1" vertex="1">
          <mxGeometry x="200" y="545" width="80" height="80" as="geometry" />
        </mxCell>
        <mxCell id="hShiBF7f5LqrZP-0qnfP-12" style="edgeStyle=orthogonalEdgeStyle;rounded=0;orthogonalLoop=1;jettySize=auto;html=1;entryX=0.5;entryY=0;entryDx=0;entryDy=0;" parent="WIyWlLk6GJQsqaUBKTNV-1" source="hShiBF7f5LqrZP-0qnfP-10" target="hShiBF7f5LqrZP-0qnfP-11" edge="1">
          <mxGeometry relative="1" as="geometry" />
        </mxCell>
        <mxCell id="hShiBF7f5LqrZP-0qnfP-10" value="int cnt = 0" style="rounded=0;whiteSpace=wrap;html=1;" parent="WIyWlLk6GJQsqaUBKTNV-1" vertex="1">
          <mxGeometry x="195" y="140" width="90" height="40" as="geometry" />
        </mxCell>
        <mxCell id="hShiBF7f5LqrZP-0qnfP-16" value="" style="edgeStyle=orthogonalEdgeStyle;rounded=0;orthogonalLoop=1;jettySize=auto;html=1;" parent="WIyWlLk6GJQsqaUBKTNV-1" source="hShiBF7f5LqrZP-0qnfP-11" target="hShiBF7f5LqrZP-0qnfP-14" edge="1">
          <mxGeometry relative="1" as="geometry" />
        </mxCell>
        <mxCell id="hShiBF7f5LqrZP-0qnfP-11" value="int i = 0&lt;br&gt;int j = 0" style="rounded=0;whiteSpace=wrap;html=1;" parent="WIyWlLk6GJQsqaUBKTNV-1" vertex="1">
          <mxGeometry x="195" y="210" width="90" height="40" as="geometry" />
        </mxCell>
        <mxCell id="hShiBF7f5LqrZP-0qnfP-17" style="edgeStyle=orthogonalEdgeStyle;rounded=0;orthogonalLoop=1;jettySize=auto;html=1;entryX=0.5;entryY=0;entryDx=0;entryDy=0;" parent="WIyWlLk6GJQsqaUBKTNV-1" source="hShiBF7f5LqrZP-0qnfP-14" target="hShiBF7f5LqrZP-0qnfP-15" edge="1">
          <mxGeometry relative="1" as="geometry" />
        </mxCell>
        <mxCell id="hShiBF7f5LqrZP-0qnfP-53" style="edgeStyle=orthogonalEdgeStyle;rounded=0;orthogonalLoop=1;jettySize=auto;html=1;" parent="WIyWlLk6GJQsqaUBKTNV-1" source="hShiBF7f5LqrZP-0qnfP-14" edge="1">
          <mxGeometry relative="1" as="geometry">
            <mxPoint x="240" y="1480" as="targetPoint" />
            <Array as="points">
              <mxPoint x="460" y="340" />
              <mxPoint x="240" y="1440" />
            </Array>
          </mxGeometry>
        </mxCell>
        <mxCell id="hShiBF7f5LqrZP-0qnfP-14" value="i &amp;lt; m" style="rhombus;whiteSpace=wrap;html=1;" parent="WIyWlLk6GJQsqaUBKTNV-1" vertex="1">
          <mxGeometry x="200" y="300" width="80" height="80" as="geometry" />
        </mxCell>
        <mxCell id="hShiBF7f5LqrZP-0qnfP-18" style="edgeStyle=orthogonalEdgeStyle;rounded=0;orthogonalLoop=1;jettySize=auto;html=1;entryX=0.5;entryY=0;entryDx=0;entryDy=0;" parent="WIyWlLk6GJQsqaUBKTNV-1" source="hShiBF7f5LqrZP-0qnfP-15" target="hShiBF7f5LqrZP-0qnfP-3" edge="1">
          <mxGeometry relative="1" as="geometry" />
        </mxCell>
        <mxCell id="hShiBF7f5LqrZP-0qnfP-72" style="edgeStyle=orthogonalEdgeStyle;rounded=0;orthogonalLoop=1;jettySize=auto;html=1;entryX=0.5;entryY=0;entryDx=0;entryDy=0;" parent="WIyWlLk6GJQsqaUBKTNV-1" source="hShiBF7f5LqrZP-0qnfP-15" target="hShiBF7f5LqrZP-0qnfP-33" edge="1">
          <mxGeometry relative="1" as="geometry">
            <mxPoint x="240" y="740" as="targetPoint" />
            <Array as="points">
              <mxPoint x="380" y="460" />
              <mxPoint x="380" y="730" />
              <mxPoint x="240" y="730" />
            </Array>
          </mxGeometry>
        </mxCell>
        <mxCell id="hShiBF7f5LqrZP-0qnfP-15" value="j &amp;lt; n" style="rhombus;whiteSpace=wrap;html=1;" parent="WIyWlLk6GJQsqaUBKTNV-1" vertex="1">
          <mxGeometry x="200" y="420" width="80" height="80" as="geometry" />
        </mxCell>
        <mxCell id="hShiBF7f5LqrZP-0qnfP-21" value="cnt = cnt + 1" style="rounded=0;whiteSpace=wrap;html=1;" parent="WIyWlLk6GJQsqaUBKTNV-1" vertex="1">
          <mxGeometry x="195" y="660" width="90" height="40" as="geometry" />
        </mxCell>
        <mxCell id="hShiBF7f5LqrZP-0qnfP-25" value="Да" style="text;html=1;strokeColor=none;fillColor=none;align=center;verticalAlign=middle;whiteSpace=wrap;rounded=0;" parent="WIyWlLk6GJQsqaUBKTNV-1" vertex="1">
          <mxGeometry x="225" y="625" width="60" height="30" as="geometry" />
        </mxCell>
        <mxCell id="hShiBF7f5LqrZP-0qnfP-34" style="edgeStyle=orthogonalEdgeStyle;rounded=0;orthogonalLoop=1;jettySize=auto;html=1;strokeColor=default;endArrow=none;endFill=0;" parent="WIyWlLk6GJQsqaUBKTNV-1" edge="1">
          <mxGeometry relative="1" as="geometry">
            <mxPoint x="240" y="1300" as="targetPoint" />
            <mxPoint x="280" y="790" as="sourcePoint" />
            <Array as="points">
              <mxPoint x="370" y="790" />
              <mxPoint x="370" y="1290" />
              <mxPoint x="240" y="1290" />
            </Array>
          </mxGeometry>
        </mxCell>
        <mxCell id="hShiBF7f5LqrZP-0qnfP-37" value="" style="edgeStyle=orthogonalEdgeStyle;rounded=0;orthogonalLoop=1;jettySize=auto;html=1;" parent="WIyWlLk6GJQsqaUBKTNV-1" source="hShiBF7f5LqrZP-0qnfP-33" target="hShiBF7f5LqrZP-0qnfP-36" edge="1">
          <mxGeometry relative="1" as="geometry" />
        </mxCell>
        <mxCell id="hShiBF7f5LqrZP-0qnfP-33" value="cnt == k" style="rhombus;whiteSpace=wrap;html=1;" parent="WIyWlLk6GJQsqaUBKTNV-1" vertex="1">
          <mxGeometry x="200" y="750" width="80" height="80" as="geometry" />
        </mxCell>
        <mxCell id="hShiBF7f5LqrZP-0qnfP-35" value="Нет" style="text;html=1;strokeColor=none;fillColor=none;align=center;verticalAlign=middle;whiteSpace=wrap;rounded=0;" parent="WIyWlLk6GJQsqaUBKTNV-1" vertex="1">
          <mxGeometry x="280" y="770" width="60" height="30" as="geometry" />
        </mxCell>
        <mxCell id="hShiBF7f5LqrZP-0qnfP-39" value="" style="edgeStyle=orthogonalEdgeStyle;rounded=0;orthogonalLoop=1;jettySize=auto;html=1;" parent="WIyWlLk6GJQsqaUBKTNV-1" source="hShiBF7f5LqrZP-0qnfP-36" target="hShiBF7f5LqrZP-0qnfP-38" edge="1">
          <mxGeometry relative="1" as="geometry" />
        </mxCell>
        <mxCell id="hShiBF7f5LqrZP-0qnfP-36" value="int j = 0" style="whiteSpace=wrap;html=1;" parent="WIyWlLk6GJQsqaUBKTNV-1" vertex="1">
          <mxGeometry x="195" y="870" width="90" height="40" as="geometry" />
        </mxCell>
        <mxCell id="hShiBF7f5LqrZP-0qnfP-42" value="" style="edgeStyle=orthogonalEdgeStyle;rounded=0;orthogonalLoop=1;jettySize=auto;html=1;" parent="WIyWlLk6GJQsqaUBKTNV-1" source="hShiBF7f5LqrZP-0qnfP-38" target="hShiBF7f5LqrZP-0qnfP-41" edge="1">
          <mxGeometry relative="1" as="geometry" />
        </mxCell>
        <mxCell id="hShiBF7f5LqrZP-0qnfP-90" style="edgeStyle=orthogonalEdgeStyle;rounded=0;orthogonalLoop=1;jettySize=auto;html=1;" parent="WIyWlLk6GJQsqaUBKTNV-1" source="hShiBF7f5LqrZP-0qnfP-38" edge="1">
          <mxGeometry relative="1" as="geometry">
            <mxPoint x="240" y="1320" as="targetPoint" />
            <Array as="points">
              <mxPoint x="310" y="980" />
              <mxPoint x="240" y="1290" />
            </Array>
          </mxGeometry>
        </mxCell>
        <mxCell id="hShiBF7f5LqrZP-0qnfP-38" value="j &amp;lt; n" style="rhombus;whiteSpace=wrap;html=1;" parent="WIyWlLk6GJQsqaUBKTNV-1" vertex="1">
          <mxGeometry x="200" y="940" width="80" height="80" as="geometry" />
        </mxCell>
        <mxCell id="hShiBF7f5LqrZP-0qnfP-40" value="Да" style="text;html=1;strokeColor=none;fillColor=none;align=center;verticalAlign=middle;whiteSpace=wrap;rounded=0;" parent="WIyWlLk6GJQsqaUBKTNV-1" vertex="1">
          <mxGeometry x="225" y="830" width="60" height="30" as="geometry" />
        </mxCell>
        <mxCell id="hShiBF7f5LqrZP-0qnfP-44" value="" style="edgeStyle=orthogonalEdgeStyle;rounded=0;orthogonalLoop=1;jettySize=auto;html=1;" parent="WIyWlLk6GJQsqaUBKTNV-1" source="hShiBF7f5LqrZP-0qnfP-41" edge="1">
          <mxGeometry relative="1" as="geometry">
            <mxPoint x="240" y="1169" as="targetPoint" />
          </mxGeometry>
        </mxCell>
        <mxCell id="hShiBF7f5LqrZP-0qnfP-85" style="edgeStyle=orthogonalEdgeStyle;rounded=0;orthogonalLoop=1;jettySize=auto;html=1;" parent="WIyWlLk6GJQsqaUBKTNV-1" source="hShiBF7f5LqrZP-0qnfP-41" edge="1">
          <mxGeometry relative="1" as="geometry">
            <mxPoint x="100" y="1090" as="targetPoint" />
          </mxGeometry>
        </mxCell>
        <mxCell id="hShiBF7f5LqrZP-0qnfP-41" value="arr[i][j] &amp;gt;= 0" style="rhombus;whiteSpace=wrap;html=1;" parent="WIyWlLk6GJQsqaUBKTNV-1" vertex="1">
          <mxGeometry x="200" y="1050" width="80" height="80" as="geometry" />
        </mxCell>
        <mxCell id="hShiBF7f5LqrZP-0qnfP-83" style="edgeStyle=orthogonalEdgeStyle;rounded=0;orthogonalLoop=1;jettySize=auto;html=1;entryX=0;entryY=0.5;entryDx=0;entryDy=0;" parent="WIyWlLk6GJQsqaUBKTNV-1" source="hShiBF7f5LqrZP-0qnfP-45" target="hShiBF7f5LqrZP-0qnfP-38" edge="1">
          <mxGeometry relative="1" as="geometry">
            <mxPoint x="100" y="970" as="targetPoint" />
            <Array as="points">
              <mxPoint x="240" y="1260" />
              <mxPoint x="100" y="1260" />
              <mxPoint x="100" y="980" />
            </Array>
          </mxGeometry>
        </mxCell>
        <mxCell id="hShiBF7f5LqrZP-0qnfP-45" value="arr[i][j] = k" style="shape=parallelogram;perimeter=parallelogramPerimeter;whiteSpace=wrap;html=1;fixedSize=1;" parent="WIyWlLk6GJQsqaUBKTNV-1" vertex="1">
          <mxGeometry x="185" y="1169" width="110" height="51" as="geometry" />
        </mxCell>
        <mxCell id="hShiBF7f5LqrZP-0qnfP-46" value="Да" style="text;html=1;strokeColor=none;fillColor=none;align=center;verticalAlign=middle;whiteSpace=wrap;rounded=0;" parent="WIyWlLk6GJQsqaUBKTNV-1" vertex="1">
          <mxGeometry x="230" y="1130" width="60" height="30" as="geometry" />
        </mxCell>
        <mxCell id="hShiBF7f5LqrZP-0qnfP-54" value="Нет" style="text;html=1;strokeColor=none;fillColor=none;align=center;verticalAlign=middle;whiteSpace=wrap;rounded=0;" parent="WIyWlLk6GJQsqaUBKTNV-1" vertex="1">
          <mxGeometry x="340" y="320" width="60" height="30" as="geometry" />
        </mxCell>
        <mxCell id="hShiBF7f5LqrZP-0qnfP-55" value="Да" style="text;html=1;strokeColor=none;fillColor=none;align=center;verticalAlign=middle;whiteSpace=wrap;rounded=0;" parent="WIyWlLk6GJQsqaUBKTNV-1" vertex="1">
          <mxGeometry x="230" y="390" width="60" height="30" as="geometry" />
        </mxCell>
        <mxCell id="hShiBF7f5LqrZP-0qnfP-56" value="Да" style="text;html=1;strokeColor=none;fillColor=none;align=center;verticalAlign=middle;whiteSpace=wrap;rounded=0;" parent="WIyWlLk6GJQsqaUBKTNV-1" vertex="1">
          <mxGeometry x="230" y="510" width="60" height="30" as="geometry" />
        </mxCell>
        <mxCell id="hShiBF7f5LqrZP-0qnfP-73" value="Нет" style="text;html=1;strokeColor=none;fillColor=none;align=center;verticalAlign=middle;whiteSpace=wrap;rounded=0;" parent="WIyWlLk6GJQsqaUBKTNV-1" vertex="1">
          <mxGeometry x="290" y="440" width="60" height="30" as="geometry" />
        </mxCell>
        <mxCell id="hShiBF7f5LqrZP-0qnfP-74" value="Нет" style="text;html=1;strokeColor=none;fillColor=none;align=center;verticalAlign=middle;whiteSpace=wrap;rounded=0;" parent="WIyWlLk6GJQsqaUBKTNV-1" vertex="1">
          <mxGeometry x="135" y="1070" width="60" height="30" as="geometry" />
        </mxCell>
        <mxCell id="hShiBF7f5LqrZP-0qnfP-80" style="edgeStyle=orthogonalEdgeStyle;rounded=0;orthogonalLoop=1;jettySize=auto;html=1;entryX=0;entryY=0.5;entryDx=0;entryDy=0;" parent="WIyWlLk6GJQsqaUBKTNV-1" source="hShiBF7f5LqrZP-0qnfP-75" target="hShiBF7f5LqrZP-0qnfP-15" edge="1">
          <mxGeometry relative="1" as="geometry" />
        </mxCell>
        <mxCell id="hShiBF7f5LqrZP-0qnfP-75" value="j = j + 1" style="rounded=0;whiteSpace=wrap;html=1;" parent="WIyWlLk6GJQsqaUBKTNV-1" vertex="1">
          <mxGeometry x="80" y="440" width="90" height="40" as="geometry" />
        </mxCell>
        <mxCell id="hShiBF7f5LqrZP-0qnfP-81" style="edgeStyle=orthogonalEdgeStyle;rounded=0;orthogonalLoop=1;jettySize=auto;html=1;entryX=0.433;entryY=1;entryDx=0;entryDy=0;entryPerimeter=0;" parent="WIyWlLk6GJQsqaUBKTNV-1" source="hShiBF7f5LqrZP-0qnfP-21" target="hShiBF7f5LqrZP-0qnfP-75" edge="1">
          <mxGeometry relative="1" as="geometry" />
        </mxCell>
        <mxCell id="hShiBF7f5LqrZP-0qnfP-84" value="j = j + 1" style="rounded=0;whiteSpace=wrap;html=1;" parent="WIyWlLk6GJQsqaUBKTNV-1" vertex="1">
          <mxGeometry x="60" y="1010" width="90" height="40" as="geometry" />
        </mxCell>
        <mxCell id="hShiBF7f5LqrZP-0qnfP-89" value="Нет" style="text;html=1;strokeColor=none;fillColor=none;align=center;verticalAlign=middle;whiteSpace=wrap;rounded=0;" parent="WIyWlLk6GJQsqaUBKTNV-1" vertex="1">
          <mxGeometry x="125" y="655" width="60" height="30" as="geometry" />
        </mxCell>
        <mxCell id="hShiBF7f5LqrZP-0qnfP-93" style="edgeStyle=orthogonalEdgeStyle;rounded=0;orthogonalLoop=1;jettySize=auto;html=1;entryX=0;entryY=0.5;entryDx=0;entryDy=0;" parent="WIyWlLk6GJQsqaUBKTNV-1" source="ej62a80_FU6FJg32b86N-0" target="hShiBF7f5LqrZP-0qnfP-14" edge="1">
          <mxGeometry relative="1" as="geometry">
            <mxPoint x="20" y="1370" as="targetPoint" />
            <Array as="points">
              <mxPoint x="20" y="340" />
            </Array>
          </mxGeometry>
        </mxCell>
        <mxCell id="hShiBF7f5LqrZP-0qnfP-91" value="cnt = 0" style="rounded=0;whiteSpace=wrap;html=1;" parent="WIyWlLk6GJQsqaUBKTNV-1" vertex="1">
          <mxGeometry x="203.75" y="1320" width="72.5" height="30" as="geometry" />
        </mxCell>
        <mxCell id="hShiBF7f5LqrZP-0qnfP-96" value="" style="edgeStyle=orthogonalEdgeStyle;rounded=0;orthogonalLoop=1;jettySize=auto;html=1;" parent="WIyWlLk6GJQsqaUBKTNV-1" source="hShiBF7f5LqrZP-0qnfP-94" target="hShiBF7f5LqrZP-0qnfP-95" edge="1">
          <mxGeometry relative="1" as="geometry" />
        </mxCell>
        <mxCell id="hShiBF7f5LqrZP-0qnfP-94" value="Return arr" style="shape=parallelogram;perimeter=parallelogramPerimeter;whiteSpace=wrap;html=1;fixedSize=1;" parent="WIyWlLk6GJQsqaUBKTNV-1" vertex="1">
          <mxGeometry x="190" y="1480" width="100" height="40" as="geometry" />
        </mxCell>
        <mxCell id="hShiBF7f5LqrZP-0qnfP-95" value="Конец" style="rounded=1;whiteSpace=wrap;html=1;" parent="WIyWlLk6GJQsqaUBKTNV-1" vertex="1">
          <mxGeometry x="195" y="1580" width="90" height="40" as="geometry" />
        </mxCell>
        <mxCell id="hShiBF7f5LqrZP-0qnfP-97" value="Нет" style="text;html=1;strokeColor=none;fillColor=none;align=center;verticalAlign=middle;whiteSpace=wrap;rounded=0;" parent="WIyWlLk6GJQsqaUBKTNV-1" vertex="1">
          <mxGeometry x="130" y="560" width="60" height="30" as="geometry" />
        </mxCell>
        <mxCell id="hShiBF7f5LqrZP-0qnfP-98" value="Да" style="text;html=1;strokeColor=none;fillColor=none;align=center;verticalAlign=middle;whiteSpace=wrap;rounded=0;" parent="WIyWlLk6GJQsqaUBKTNV-1" vertex="1">
          <mxGeometry x="230" y="1020" width="60" height="30" as="geometry" />
        </mxCell>
        <mxCell id="hShiBF7f5LqrZP-0qnfP-99" value="Нет" style="text;html=1;strokeColor=none;fillColor=none;align=center;verticalAlign=middle;whiteSpace=wrap;rounded=0;" parent="WIyWlLk6GJQsqaUBKTNV-1" vertex="1">
          <mxGeometry x="270" y="960" width="60" height="30" as="geometry" />
        </mxCell>
        <mxCell id="ej62a80_FU6FJg32b86N-1" value="" style="edgeStyle=orthogonalEdgeStyle;rounded=0;orthogonalLoop=1;jettySize=auto;html=1;entryX=0;entryY=0.5;entryDx=0;entryDy=0;" edge="1" parent="WIyWlLk6GJQsqaUBKTNV-1" source="hShiBF7f5LqrZP-0qnfP-91" target="ej62a80_FU6FJg32b86N-0">
          <mxGeometry relative="1" as="geometry">
            <mxPoint x="200" y="340" as="targetPoint" />
            <Array as="points">
              <mxPoint x="240" y="1380" />
              <mxPoint x="20" y="1380" />
            </Array>
            <mxPoint x="240" y="1350" as="sourcePoint" />
          </mxGeometry>
        </mxCell>
        <mxCell id="ej62a80_FU6FJg32b86N-0" value="i = i + 1" style="rounded=0;whiteSpace=wrap;html=1;" vertex="1" parent="WIyWlLk6GJQsqaUBKTNV-1">
          <mxGeometry x="-20" y="360" width="90" height="40" as="geometry" />
        </mxCell>
      </root>
    </mxGraphModel>
  </diagram>
</mxfile>
